<svg xmlns="http://www.w3.org/2000/svg" viewBox="0 0 339.91 327.78" class="icon icon-404"><title>404</title><path d="M117.54,327.83c-5-6.27-11.85-10.37-17.79-15.52-2.11-1.83-3.52-3.52-3.51-6.61q.15-67.05.08-134.1a21,21,0,0,1,.28-2.46l7.07,0c0,39.8.62,79.62-.19,119.4-.25,12.17,2.15,21.21,13,27.18.28.15,3.87,2.3,5.74.64,4.21-3.73,8.72-7.12,13-10.83,2.75-2.41,4.95-2.39,7.72.12,4.17,3.79,8.7,7.18,13.07,10.76,1.89,1.55,3.47,1.66,5.48-.19,4-3.69,8.43-6.95,12.52-10.56,2.86-2.52,5.43-2.76,8.25-.05,1.31,1.26,2.82,2.32,4.24,3.47,3.61,2.91,7,7.83,10.9,8.19,4.18.39,7.49-5.14,11.23-8,8.71-6.7,7.08-8.49,17.12,0,3.54,3,7.07,7.85,10.88,8.14s7.24-5.09,10.86-8a54.38,54.38,0,0,0,4.23-3.48c3.31-3.22,6.3-2.7,9.52.27s7.25,6.15,10.81,9.09c-.1-2.73-.1-2.31-.1-2.73q0-95.18.08-190.36c0-3.2-1.41-3.38-3.89-3.37-13.13.08-26.26,0-39.4,0-6,0-7.33-1.3-7.34-7.19,0-13-.15-26,.08-38.95.06-3.64-.72-4.8-4.59-4.74-13.29.23-26.59,0-39.88,0-1.81-2.17-.87-5.23-2.39-7.49l49.82-.24a6.94,6.94,0,0,1,5.15,2.48q23.33,23.58,46.85,47a10.22,10.22,0,0,1,3.41,7.84q-.11,101.11,0,202.22c0,3.11-.43,5.81-2.66,8h-3c-5-5.21-10.95-9.19-16.29-13.94-1-.86-1.78-1.32-3-.3-5.53,4.77-11.1,9.49-16.66,14.23h-3c-5.46-4.63-11-9.23-16.37-13.91-1.22-1.06-2.11-1.2-3.36,0-5.24,4.83-11.4,8.6-16.18,14h-3c-5.49-4.63-11-9.24-16.46-13.92-1-.85-1.8-1.38-3-.34-5.43,4.83-11.6,8.8-16.49,14.26h-3c-5.37-4.55-10.89-8.93-16-13.73-2-1.86-2.87-1.61-4.7,0-5.77,5-11,10.62-18.19,13.77Zm112-252.73c0,11.62,0,22.38,0,33.14,0,1.79.7,2.72,2.67,2.72,10.86-.05,21.73,0,33,0Z" transform="translate(0 -0.05)" style="fill:#121212"/><path d="M174.56,60.52c1.52,2.26.57,5.32,2.39,7.49,1.26,7.69,2.75,15.31,2.51,23.21-.83,26.51-12.05,47.34-33.29,63-12.68,9.36-27.09,13.53-42.51,14.94l-7.07,0c-14-1.4-27.33-4.89-39.08-13-2.62-1.81-4.07-.68-5.83,1.1Q38.94,170.18,26.1,183c-9.41,9.46-18.17,10.14-24.44-1.63-1.73-3.24-2.87-8.22.57-11.88,11-11.19,20.62-21,31.74-32.11,1.85-1.84,1.07-3,0-4.64C21.59,113.17,18.81,92,23.83,69.65c6.73-30,36.73-56.09,67.5-58.6,37-3,66,13.77,81.91,47.39A19.33,19.33,0,0,0,174.56,60.52Zm-3,29.56c1.34-36.32-28.79-71.5-70.43-71.82-39.23-.3-72,30.42-72,71.53C29,131.14,63.81,163,104.29,161,141,159.23,172.56,127.09,171.53,90.09ZM13.79,181.82a5.69,5.69,0,0,0,4.31-1.93c6.37-6.29,12.64-12.67,19-18.94,1.4-1.37,1.45-2.34,0-3.63s-2.8-2.82-4.21-4.22c-1-1-2-1.62-3.36-.27C23,159.46,16.44,166,10,172.67a4.85,4.85,0,0,0-.6,6A5.75,5.75,0,0,0,13.79,181.82ZM48.14,149.1c-2.42-2.32-4.74-4.59-7.14-6.79-.16-.15-1,.15-1.26.45-.93,1.05-3.2,2.05-2.33,3.33a30.81,30.81,0,0,0,6.41,6.63c1.28,1,2.22-.86,3.14-1.68A9,9,0,0,0,48.14,149.1Z" transform="translate(0 -0.05)" style="fill:#f8a916"/><path d="M118.53,327.83c7.14-3.15,12.41-8.81,18.19-13.77,1.83-1.57,2.72-1.82,4.7,0,5.13,4.81,10.65,9.18,16,13.73Z" transform="translate(0 -0.05)" style="fill:#fefefd"/><path d="M238.25,327.83c5.56-4.74,11.13-9.46,16.66-14.23,1.19-1,2-.56,3,.3,5.34,4.75,11.34,8.73,16.29,13.94Z" transform="translate(0 -0.05)" style="fill:#fefefd"/><path d="M160.43,327.83c4.89-5.46,11.06-9.43,16.49-14.26,1.16-1,2-.51,3,.34,5.46,4.67,11,9.28,16.46,13.92Z" transform="translate(0 -0.05)" style="fill:#fefefd"/><path d="M199.34,327.83c4.79-5.36,10.94-9.13,16.18-14,1.25-1.15,2.13-1,3.36,0,5.42,4.68,10.91,9.28,16.37,13.91Z" transform="translate(0 -0.05)" style="fill:#fefefd"/><path d="M314.08,29.75c.36,1.71-.72,2.76-1.79,3.82Q304.58,41.29,296.86,49c-1.9,1.91-3.91,3.31-6.37,1s-1.46-4.27.62-6.31c5.41-5.29,10.72-10.68,16-16.08,1.41-1.44,2.95-2.19,4.85-1.39A3.08,3.08,0,0,1,314.08,29.75Z" transform="translate(0 -0.05)" style="fill:#121212"/><path d="M313.66,84c-3.17.19-4.82-.91-5.35-3.06s.93-3.61,2.72-4.19a122.35,122.35,0,0,1,12.4-3.46c2.2-.47,3.87.93,4.4,3.13a3.48,3.48,0,0,1-2.55,4.29C321.19,82,317,83.06,313.66,84Z" transform="translate(0 -0.05)" style="fill:#f8a916"/><path d="M256.23,27.1c1.07-3.82,2.11-8,3.44-12a3.44,3.44,0,0,1,4.62-2.46A3.56,3.56,0,0,1,267,17.17c-.9,4-1.93,8-3.14,11.9-.64,2.07-2.27,3.37-4.58,2.83S256.21,29.64,256.23,27.1Z" transform="translate(0 -0.05)" style="fill:#f8a916"/><path d="M172.3,226.38c0-6.83-.07-13.66,0-20.49.11-8,5.53-14,13.46-15.24,10.08-1.56,17.17,1.34,21.16,8.33a14.38,14.38,0,0,1,1.68,7.16c.16,13.15.54,26.33,0,39.46-.52,11.9-11,18.69-22.91,15.79-9.08-2.2-13.33-7.59-13.36-17C172.28,238.38,172.29,232.38,172.3,226.38Zm28.2-.12c0-6.49.08-13,0-19.47-.1-5.93-3-8.45-9.61-8.59-7.08-.15-10.5,2.3-10.57,8.22q-.24,19.71,0,39.43c.07,5.57,3.37,7.83,10.38,7.8,6.52,0,9.58-2.4,9.71-7.93C200.57,239.24,200.48,226.26,200.5,226.26Z" transform="translate(0 -0.05)" style="fill:#121212"/><path d="M151.08,223.07c0-2.33,0-4.66,0-7s1-4.24,3.65-4.45c3-.23,4.19,1.86,4.35,4.28.28,4.3.25,8.64.12,13-.07,2.49.09,4.21,3.32,3.95,2.23-.18,3.76,1,3.93,3.51a3.62,3.62,0,0,1-3.93,4.14c-3.28-.11-3.36,1.44-3.26,3.91.14,3.65,0,7.31-.06,11,0,3-.76,6.21-4.17,6.25-3.57,0-4.09-3.11-4-6.21.12-3.65-.18-7.33.1-11,.25-3.23-1-3.93-4-3.79a107,107,0,0,1-12.43-.16c-3.82-.26-5.47-2.06-4.36-6.31,3.24-12.41,6.16-24.91,9.22-37.37a20.12,20.12,0,0,1,1-3.29c1-2.17,2.44-3.62,5-2.75s3.19,2.73,2.59,5.13c-2.18,8.59-4.41,17.17-6.6,25.76-.37,1.44-.72,2.88-1,4.33-1.35,6.85-1.33,6.62,5.81,6.87,3.81.13,5.1-1.16,4.65-4.81A40.32,40.32,0,0,1,151.08,223.07Z" transform="translate(0 -0.05)" style="fill:#121212"/><path d="M225.8,240.49h-2.49c-9.64-.12-10.08-.81-7.6-10.42,2.93-11.3,5.83-22.61,8.51-34,.75-3.2,1.53-6.18,5.46-5.37,4.1.85,2.9,4.54,2.34,7-2.19,9.63-4.79,19.16-7.21,28.74a19.73,19.73,0,0,1-.7,3.35c-1.07,2.33-.08,2.79,2.06,3,9.08.92,9.07,1,9.07-8.22,0-2.49,0-5,0-7.48,0-2.89.67-5.58,4.26-5.43,3.16.14,3.88,2.51,3.84,5.31-.07,4.16.07,8.32-.05,12.47-.07,2.23.44,3.48,3,3.26,2.82-.25,4.62,1.33,4.52,4a3.86,3.86,0,0,1-4.45,3.74c-3-.25-3.11,1.42-3.06,3.66.1,4.15,0,8.31,0,12.47.05,3-1.27,5.14-4.16,5-2.52-.09-3.95-2.19-3.94-4.9,0-3.82-.29-7.68.08-11.46s-.87-5.14-4.56-4.69a40.66,40.66,0,0,1-5,0Z" transform="translate(0 -0.05)" style="fill:#121212"/><path d="M96.3,104.25c0-12.47.17-25-.09-37.42-.1-4.77,1.67-6.63,6.31-6.6,14.77.09,29.55,0,44.32,0,2.17,0,4.33,0,5.83,2a3.11,3.11,0,0,1,.39,3.69c-1.16,1.95-3,2.27-5.14,2.26q-18.43-.09-36.85,0c-8.46,0-7.25-.94-7.27,7.54q-.06,33.43,0,66.86c0,2.77.65,6.26-3.57,6.24-3.86,0-4-3.12-4-6.14C96.33,129.86,96.3,117.05,96.3,104.25Z" transform="translate(0 -0.05)" style="fill:#121212"/><path d="M48.59,72.06c-2.91-.47-3.55-2.48-2.28-5.61C51.1,54.63,59.23,45.7,70,39.06A67,67,0,0,1,77,35.49c2.2-1,4.45-1,5.59,1.4s.22,4.49-2.36,5.65A51,51,0,0,0,53.48,69.32C52.38,71.81,51.49,72.17,48.59,72.06Z" transform="translate(0 -0.05)" style="fill:#f8a916"/><path d="M219.65,1c1.61.67,1.86,2.16,2.13,3.63q2,10.75,4,21.49c.5,2.65.51,5.11-2.8,5.81s-4.34-1.2-4.84-4.08c-1.29-7.46-2.72-14.9-4.18-22.34-.39-2-.13-3.68,1.6-4.79A3.06,3.06,0,0,1,219.65,1Z" transform="translate(0 -0.05)" style="fill:#121212"/><path d="M338,127.47c-1.26,1.21-2.72.84-4.18.5q-10.62-2.48-21.24-4.95c-2.62-.61-4.88-1.57-4.2-4.9s2.84-3.51,5.67-2.81c7.34,1.8,14.72,3.46,22.1,5.11,2,.44,3.41,1.35,3.74,3.39A3.08,3.08,0,0,1,338,127.47Z" transform="translate(0 -0.05)" style="fill:#121212"/></svg>