<svg xmlns="http://www.w3.org/2000/svg" viewBox="0 0 88.76 68.33" class="icon icon-catalog3"><title>catalog3</title><path d="M19.94,105.33c1.78.11,3.36.15,4.68.15,2.57,0,4.13-.14,4.23-.15l1.53-.15-3.71-6.61v-9.3l-.1-.21a9.12,9.12,0,0,0-6.9-4.76V74.62L31.61,46.4l24.14,2.38V65.63H47c-8.3,0-10.85,7.79-11,12V93.5a13.59,13.59,0,0,0-5.13,4c-2.49,3.26-.24,8.16-.11,8.44h0l1.79-.84s-1.88-4.07-.11-6.38a11.75,11.75,0,0,1,4.72-3.52H92.26c1.18.17,4.24.83,5.31,2.07l1.51-1.31c-1.61-1.87-5.33-2.56-6.38-2.72l1.06-2.27h4.11V84.13H94.42V82.94h3.46V76.13H94.42v-.37c0-2-3.1-4.11-4-4.72l-.25-.16H74.21l-5-20.77,1.55.15c1.77,0,3.67-.86,3.67-2.75s-.32-7.32-.34-7.56V39.7l-.12-.21a4.14,4.14,0,0,0-3.45-1.91H22.58c-1.17,0-2.92.67-2.92,2.5v4.45l.76.38-10.1,28.5V95.69l.07.18C10.55,96.24,14.12,105,19.94,105.33ZM58.63,93.17H38V77.63c0-.41.58-10,9-10H58.63Zm37.25-7v2.81H77.63V86.13Zm0-8v2.81H77.63V78.13Zm-6.34-5.25c1.51,1,2.88,2.37,2.88,2.88v.38H75.63v6.81H92.42v1.19H75.63v6.81H91.56l-1,2.08.34.16H60.63V75.95l2.91-3.07Zm-17.39-2H62.67l-2,2.16V65.63H57.75V49l.91.09h0L60,63.17a1.66,1.66,0,0,0,.51,1.13,2.76,2.76,0,0,0,2,.65,7.09,7.09,0,0,0,.76,0,7,7,0,0,0,4-1.7l.4-.4L64.3,49.62l2.79.28ZM60.66,49.26l1.53.15,3.26,12.7a5.57,5.57,0,0,1-2.39.81,2.68,2.68,0,0,1-1.07,0Zm-39-9.18c0-.48.89-.5.92-.5H70.5a2.1,2.1,0,0,1,1.6.76c.07,1.19.32,5.67.32,7.15,0,.63-1.39.73-1.63.75L21.95,43.44l-.28-.14Zm.68,5.4,2.6.26L15.72,70.33H13.55Zm-10,28.27.5-1.42h4.27L27,45.95l2.51.25-11.86,28v10H12.33Zm0,12.5h6.33a7,7,0,0,1,6,3.5v9.34l2.43,4.34a67.59,67.59,0,0,1-7-.1c-4.18-.26-7.23-6.88-7.73-8Z" transform="translate(-10.33 -37.58)" style="fill:#f7a605"/><path d="M40.3,86.67H56.83V70.33H47.38c-.06,0-6.37-.19-7.2,7.22a35.86,35.86,0,0,0,0,8.25Zm1.86-8.89c.61-5.43,4.68-5.47,5.17-5.45h7.5V84.67H42.07A36,36,0,0,1,42.16,77.78Z" transform="translate(-10.33 -37.58)" style="fill:#f7a605"/><path d="M68.46,47.41a3.2,3.2,0,1,0-3.21-3.2A3.21,3.21,0,0,0,68.46,47.41Zm0-4.41a1.2,1.2,0,1,1-1.21,1.21A1.21,1.21,0,0,1,68.46,43Z" transform="translate(-10.33 -37.58)" style="fill:#f7a605"/><path d="M56.37,105.92a2.16,2.16,0,0,1-.24-1,2.19,2.19,0,0,1,4.38,0,2.16,2.16,0,0,1-.24,1h4.11a2.16,2.16,0,0,1-.24-1,2.19,2.19,0,0,1,4.38,0,2.16,2.16,0,0,1-.24,1h4.11a2.16,2.16,0,0,1-.24-1,2.19,2.19,0,0,1,4.38,0,2.16,2.16,0,0,1-.24,1h4.11a2.16,2.16,0,0,1-.24-1,2.19,2.19,0,0,1,4.38,0,2.16,2.16,0,0,1-.24,1h4.18a4.3,4.3,0,1,1,5.72,0h2.56a6.29,6.29,0,1,0-11.65-4.1,4.14,4.14,0,0,0-6.76,2,4.16,4.16,0,0,0-8,0,4.16,4.16,0,0,0-8,0,4.17,4.17,0,0,0-8.06,2.15Z" transform="translate(-10.33 -37.58)" style="fill:#f7a605"/><path d="M36.44,105.92a4.3,4.3,0,1,1,5.72,0h4.21a2.16,2.16,0,0,1-.24-1,2.19,2.19,0,0,1,4.38,0,2.16,2.16,0,0,1-.24,1h2.11a4.15,4.15,0,0,0,.13-1,4.17,4.17,0,0,0-7-3.1,6.29,6.29,0,1,0-11.65,4.08Z" transform="translate(-10.33 -37.58)" style="fill:#f7a605"/></svg>