<svg xmlns="http://www.w3.org/2000/svg" viewBox="0 0 65.45 94.96" class="icon icon-catalog1"><title>catalog1</title><polygon points="65.45 0 0 0 0 64.13 2 64.13 2 2 65.45 2 65.45 0" style="fill:#f7a605"/><path d="M106,87H95.9l-6.81,4h-17l-5.94-4H49.67V81.94H69.34L60,72.31H49.67v-12a12.69,12.69,0,0,0,5.59,2.52H106v-2H55.51c-.68-.13-5.84-1.24-5.84-4.75V38H106V36H49.67V28.38a2.8,2.8,0,0,1,2.88-2H106v-2H52.55A4.82,4.82,0,0,0,47.69,28l0,.1V88.88h1V89H65.55l5.94,4H89.63l6.81-4H106ZM49.67,74.31h9.51l5.44,5.63h-15Z" transform="translate(-40.55 -5.38)" style="fill:#f7a605"/><polygon points="65.45 75 54.06 75 60.12 68.94 65.45 68.94 65.45 66.94 59.29 66.94 49.23 77 65.45 77 65.45 75" style="fill:#f7a605"/><polygon points="21.96 92.96 9.13 92.96 9.13 89.71 7.13 89.71 7.13 94.96 23.96 94.96 23.96 89.71 21.96 89.71 21.96 92.96" style="fill:#f7a605"/><polygon points="65.45 92.96 57.79 92.96 57.79 89.71 55.79 89.71 55.79 94.96 65.45 94.96 65.45 92.96" style="fill:#f7a605"/></svg>