<svg xmlns="http://www.w3.org/2000/svg" viewBox="0 0 49.88 76" class="icon icon-catalog7"><title>catalog7</title><path d="M106,88.63H64.63a6.49,6.49,0,0,1-6.5-5.1V45.75c0-8.56,3.91-17,5-19.12H80.4L106,39V36.8L82,25.16a4,4,0,0,0,.33-1.08V17.75A3.46,3.46,0,0,0,80,14.69l-.17-.06H64.38a4,4,0,0,0-4.17,3.09v4a7.19,7.19,0,0,0,1.14,4c-1.15,2.28-5.2,10.93-5.2,20V83.63l0,.18a8.46,8.46,0,0,0,8.48,6.82H106Zm-30.75-72h4.16c.28.14.9.53.9,1.13v6.1a1.38,1.38,0,0,1-.37.78H75.25Zm-6,0h4v8h-4ZM62.19,18c.07-.28.46-1.35,2.19-1.35h2.88v8H63a5.17,5.17,0,0,1-.81-2.87Z" transform="translate(-56.13 -14.63)" style="fill:#f7a605"/><rect x="7.13" y="68" width="40.25" height="2" style="fill:#f7a605"/><path d="M68.68,77.63H97.63a3.47,3.47,0,0,0,3.5-3.62V57.63c0-4.07-2.71-5.45-4.14-5.62H75.13l-.22.12a24.84,24.84,0,0,0-4.84,3.78C67.08,58.75,65,65,65,71.13c0,2.84.59,4.79,1.76,5.8a2.77,2.77,0,0,0,1.77.71Zm-.61-2.21c-.32-.28-1.07-1.25-1.07-4.29,0-5.53,1.87-11.32,4.44-13.78A25.58,25.58,0,0,1,75.64,54H96.8c.4.07,2.33.58,2.33,3.63V74a1.49,1.49,0,0,1-1.5,1.63H68.48A1,1,0,0,1,68.07,75.42Z" transform="translate(-56.13 -14.63)" style="fill:#f7a605"/><path d="M79.88,32.46V45.38h24.26Zm2,3.33,14.24,7.58H81.88Z" transform="translate(-56.13 -14.63)" style="fill:#f7a605"/></svg>