<svg xmlns="http://www.w3.org/2000/svg" viewBox="0 0 76.38 101.02" class="icon icon-catalog4"><title>catalog4</title><path d="M106,24.35v-2h-4.42V12.23H92V5.15l-.35-.3a10.3,10.3,0,0,0-13.44.27l-.33.3v6.81h-9.5V22.35h-16V43h.2l-4.45,1.54V60L60.43,83.12a4.78,4.78,0,0,0-3.09-.9,7,7,0,0,0-4.86,2.71c-1.15,1.4-3.3,1.58-4.35,1.58-1.44,0-3-.91-5.1-2.91a4.81,4.81,0,0,0-3.69-1.37,7,7,0,0,0-4.86,2.71c-1.4,1.7-4.29,1.6-4.85,1.56v2c1,.05,4.47,0,6.4-2.3a5.09,5.09,0,0,1,3.44-2,2.79,2.79,0,0,1,2.18.81c2.18,2.09,3.93,3.15,5.67,3.41v0s.36,0,.84,0h0c1.4,0,4.2-.29,5.86-2.31a5.09,5.09,0,0,1,3.43-2,2.79,2.79,0,0,1,2.18.81c2.18,2.09,3.93,3.15,5.67,3.41v0a8.32,8.32,0,0,0,.85,0h0c1.4,0,4.2-.29,5.86-2.31a5.09,5.09,0,0,1,3.43-2,2.79,2.79,0,0,1,2.18.81c2.18,2.09,3.93,3.15,5.67,3.41v0a8.31,8.31,0,0,0,.85,0h0c1.4,0,4.2-.29,5.86-2.31a5.09,5.09,0,0,1,3.43-2,2.79,2.79,0,0,1,2.18.81c2.18,2.09,3.93,3.15,5.67,3.41v0a8.31,8.31,0,0,0,.85,0h0a9.48,9.48,0,0,0,3.83-.79V85.4a6.44,6.44,0,0,1-3.87,1.11c-1.44,0-3-.91-5.11-2.92a4.83,4.83,0,0,0-3.69-1.37,7,7,0,0,0-4.86,2.71c-1.15,1.39-3.3,1.58-4.35,1.58-1.44,0-3-.91-5.11-2.92a4.83,4.83,0,0,0-3.69-1.37,7,7,0,0,0-4.86,2.71c-1.15,1.39-3.3,1.58-4.35,1.58a4.43,4.43,0,0,1-1.89-.5L50.08,59.48V45.94L83.17,34.51V68.23h2V34.46L106,41v-2.1L84.15,32.05,54.33,42.36v-18Zm-26.17-18A8.92,8.92,0,0,1,85,4.49a9.15,9.15,0,0,1,5,1.63v6.11H79.83Zm-9.5,7.88H99.58v8.13H70.33Z" transform="translate(-29.63 -2.49)" style="fill:#f7a605"/><path d="M102.13,93.5c-1.44,0-3-.91-5.1-2.92a4.83,4.83,0,0,0-3.69-1.37,7,7,0,0,0-4.86,2.71c-1.15,1.39-3.3,1.58-4.35,1.58-1.44,0-3-.91-5.1-2.92a4.83,4.83,0,0,0-3.69-1.37,7,7,0,0,0-4.86,2.71c-1.15,1.39-3.3,1.58-4.35,1.58-1.44,0-3-.91-5.1-2.92a4.81,4.81,0,0,0-3.69-1.37,7,7,0,0,0-4.86,2.71c-1.15,1.39-3.3,1.58-4.35,1.58-1.44,0-3-.91-5.1-2.92a4.81,4.81,0,0,0-3.69-1.37,7,7,0,0,0-4.86,2.71c-1.4,1.7-4.29,1.6-4.85,1.56v2c1,.05,4.47,0,6.4-2.3a5.09,5.09,0,0,1,3.44-2,2.79,2.79,0,0,1,2.18.81c2.18,2.09,3.93,3.15,5.67,3.41v0s.36,0,.84,0h0c1.4,0,4.2-.29,5.86-2.31a5.09,5.09,0,0,1,3.43-2,2.8,2.8,0,0,1,2.18.81c2.18,2.09,3.93,3.15,5.67,3.41v0a8.32,8.32,0,0,0,.85,0h0c1.4,0,4.2-.29,5.86-2.31a5.09,5.09,0,0,1,3.43-2,2.8,2.8,0,0,1,2.18.81c2.18,2.09,3.93,3.15,5.67,3.41v0a8.31,8.31,0,0,0,.85,0h0c1.4,0,4.2-.29,5.86-2.31a5.09,5.09,0,0,1,3.43-2,2.8,2.8,0,0,1,2.18.81c2.18,2.09,3.93,3.15,5.67,3.41v0a8.31,8.31,0,0,0,.85,0h0a9.48,9.48,0,0,0,3.83-.79V92.4A6.44,6.44,0,0,1,102.13,93.5Z" transform="translate(-29.63 -2.49)" style="fill:#f7a605"/><path d="M102.13,101.51c-1.44,0-3-.91-5.11-2.92a4.83,4.83,0,0,0-3.69-1.37,7,7,0,0,0-4.86,2.71c-1.15,1.39-3.3,1.58-4.35,1.58-1.44,0-3-.91-5.11-2.92a4.83,4.83,0,0,0-3.69-1.37,7,7,0,0,0-4.86,2.71c-1.15,1.39-3.3,1.58-4.35,1.58-1.44,0-3-.91-5.11-2.92a4.81,4.81,0,0,0-3.69-1.37,7,7,0,0,0-4.86,2.71c-1.15,1.4-3.3,1.58-4.35,1.58-1.44,0-3-.91-5.1-2.91a4.81,4.81,0,0,0-3.69-1.37,7,7,0,0,0-4.86,2.71c-1.4,1.7-4.29,1.6-4.85,1.56v2c1,.05,4.47,0,6.4-2.3a5.09,5.09,0,0,1,3.44-2,2.8,2.8,0,0,1,2.18.81c2.18,2.09,3.93,3.15,5.67,3.41v0a8.41,8.41,0,0,0,.84,0h0c1.4,0,4.2-.29,5.86-2.31a5.09,5.09,0,0,1,3.43-2,2.8,2.8,0,0,1,2.18.81c2.18,2.09,3.93,3.15,5.67,3.41v0a8.2,8.2,0,0,0,.85,0h0c1.4,0,4.2-.29,5.86-2.31a5.09,5.09,0,0,1,3.43-2,2.8,2.8,0,0,1,2.18.81c2.18,2.09,3.93,3.15,5.67,3.41v0a8.19,8.19,0,0,0,.85,0h0c1.4,0,4.2-.29,5.86-2.31a5.09,5.09,0,0,1,3.43-2,2.8,2.8,0,0,1,2.18.81c2.18,2.09,3.93,3.15,5.67,3.41v0a8.19,8.19,0,0,0,.85,0h0a9.47,9.47,0,0,0,3.83-.79V100.4A6.44,6.44,0,0,1,102.13,101.51Z" transform="translate(-29.63 -2.49)" style="fill:#f7a605"/><path d="M73.87,42.54a3.81,3.81,0,1,0,3.81-3.81A3.82,3.82,0,0,0,73.87,42.54Zm5.63,0a1.81,1.81,0,1,1-1.81-1.81A1.81,1.81,0,0,1,79.49,42.54Z" transform="translate(-29.63 -2.49)" style="fill:#f7a605"/><path d="M86.89,42.54a3.81,3.81,0,1,0,3.81-3.81A3.82,3.82,0,0,0,86.89,42.54Zm5.63,0a1.81,1.81,0,1,1-1.81-1.81A1.81,1.81,0,0,1,92.52,42.54Z" transform="translate(-29.63 -2.49)" style="fill:#f7a605"/></svg>