<svg xmlns="http://www.w3.org/2000/svg" viewBox="0 0 95.31 70" class="icon icon-catalog5"><title>catalog5</title><path d="M94.63,106a5.73,5.73,0,0,0-1.24-.51l-.15,0a6.42,6.42,0,0,1-.07-1.2h-2a6.86,6.86,0,0,0,.17,1.75Z" transform="translate(-5.17 -36)" style="fill:#f7a609"/><path d="M19.83,67.42h7.54V83.33h3.25V106h2V98.17L41.25,106h4.63V83.33h6.38V67.42h42.5V101l.55.28s2.65,1.39,2.78,3.58a2.46,2.46,0,0,1-.22,1.19H100a4.83,4.83,0,0,0,.11-1.31c-.15-2.6-2.29-4.27-3.33-4.93V67.42h3.73l-4-11.75H85.3L41.62,36.29,41.56,36H34.73L11.12,55.39l.22.27H5.17V74.08H19.83Zm0-2V59l6.74,6.42Zm7.54-2-6-5.75h6Zm16.5,42.27L33.06,95.87,43.88,84.79ZM32.63,93.46V83.33H42.5ZM50.25,81.33H29.38V57.67H47.13l3.12,8.84Zm-1-23.67h5.61l-4.18,4ZM52,65.42l-.58-1.64,5.91-5.7,7.22,7.34Zm7.73-7.75H74L66.91,65Zm9.55,7.75,7.09-7.34,7.72,7.34Zm28.41,0H88.9l6.44-6.86Zm-4.25-7.75L86.54,65l-7.71-7.33Zm-12-2H45.75l-3.62-17ZM36.4,38h3.54L43.7,55.67h-11Zm-2.26,1.07L30.71,55.67H13.93Zm-16.3,33H7.17V57.67H17.83Z" transform="translate(-5.17 -36)" style="fill:#f7a609"/></svg>