<svg xmlns="http://www.w3.org/2000/svg" viewBox="0 0 91.52 89.39" class="icon icon-catalog6"><title>catalog6</title><path d="M106,93.51a7,7,0,0,1,0-9.26V81.59a9.06,9.06,0,0,0-3,3.65,8.5,8.5,0,0,0-4.1-3.59l7.08-.56v-2L63.38,82.42V75.75H85.63v-2H63.38v-.12c0-3.49,3.57-9.9,10.67-10.25s17.52,7,17.62,7.06l.26.19H106v-2h-4.86C101,66.09,100.9,58.36,106,52.3V49.37c-7,6.64-7.06,16-6.86,19.25h-6C93,65,93.31,51.21,106,42.84V40.49c-13.53,8.17-14.85,22-14.83,27.21a57.29,57.29,0,0,0-5.27-3L100.55,17c.06-.15,1.42-3.57.12-6a4.37,4.37,0,0,0-3.08-2.19,7.71,7.71,0,0,0-3.84,0L33.38,23.46V39.59a4.52,4.52,0,0,0,1.84,3.29,3.16,3.16,0,0,0,1.28.45v8.45A13.34,13.34,0,0,0,32,53.11l-8.47-8.22-.19-.07c-.14-.05-3.56-1.33-6.17.38-1.67,1.1-2.57,3.09-2.68,5.93l0,.44,10.93,11a5.09,5.09,0,0,0,1.42,9.52v5.43l.06.16c.15.43,1.57,4.16,4.44,4.16H38v-2H31.33c-1.17,0-2.16-1.85-2.5-2.68V72.05a5.11,5.11,0,0,0,3.43-2.61L35,72.15l-5.31,3.6h8.89l5,5,2.27,2.27a5.41,5.41,0,0,0,4,1.92,6.07,6.07,0,0,0,3.75-1.43,4.88,4.88,0,0,0,2-3.5,7.42,7.42,0,0,0-1.94-5L50,71.32a18.62,18.62,0,0,0,1.6-3.38c.88-2.13.38-3.45-.19-4.18a4.65,4.65,0,0,0-3.13-1.53,7.71,7.71,0,0,0-2.61-6.33l-.24-.2V41.83A4.28,4.28,0,0,0,44.1,38.5a4.51,4.51,0,0,0-2.42-1.07,13.54,13.54,0,0,0-.05-1.86V30.83L87.51,22.3,74.32,61.38H74c-7.79.38-12.58,7.39-12.58,12.25V84A7.7,7.7,0,0,0,66,97.92h40ZM16.52,50.78c.15-1.92.74-3.23,1.75-3.9,1.48-1,3.57-.44,4.19-.25l7.87,7.64a7.1,7.1,0,0,0-1.06,1.15A15.18,15.18,0,0,0,26.66,61ZM27.78,70.17a3.1,3.1,0,0,1-.84-6.09l3.82,3.84A3.1,3.1,0,0,1,27.78,70.17Zm2-7.79A5.07,5.07,0,0,0,28.5,62a12.05,12.05,0,0,1,2.39-5.43c1.38-1.9,4-2.56,5.61-2.79v4.4A8.08,8.08,0,0,0,29.81,62.38Zm7.46,9.26L36.73,71l-.08.05-3.78-3.8c0-.05,0-.1,0-.15a5.08,5.08,0,0,0-1.41-3.51c.59-1.27,2-3.11,5.36-3.39,4.51-.36,6.19,2.46,6.56,3.24A5.48,5.48,0,0,0,42,65.3l-.24.61,7.33,7.33a6.57,6.57,0,0,0-4.94,5.3Zm11.34-1.69a1,1,0,0,1,.77,0l-.25.56Zm2,4.84,1.64,1.64a5.45,5.45,0,0,1,1.4,3.45A2.94,2.94,0,0,1,52.39,82c-2.86,2.23-4.82.07-5.09-.25l-1.86-1.87.56,0A4.78,4.78,0,0,1,50.63,75ZM49.82,65c.36.46.33,1.19-.08,2.18-.67,1.61-1,2.35-1.21,2.69L44.16,65.5a3,3,0,0,1,2-1.26C47.52,64,49.22,64.23,49.82,65Zm-5.48-7.58a5.68,5.68,0,0,1,1.92,4.8h0l-.41,0a4.67,4.67,0,0,0-.7.18,8,8,0,0,0-6.65-4.27V54A23.38,23.38,0,0,1,44.34,57.42ZM42.77,40a2.36,2.36,0,0,1,.65,1.84V54.27a30.82,30.82,0,0,0-4.92-2.45V43.18l.28-.22.09,0a4.42,4.42,0,0,0,2.47-3.17l.12-.33A2.5,2.5,0,0,1,42.77,40ZM39.63,29.17v6.57a11.5,11.5,0,0,1,0,2.27l-1.18,1.58.82-.07a7,7,0,0,1-1.48,1.68,1.85,1.85,0,0,1-1.51,0,2.55,2.55,0,0,1-.89-1.67V25l55.8-13.59-2.93,8.68ZM93.2,11.69l0-.1c.16-.6,1.16-1.46,3.94-.86a2.38,2.38,0,0,1,1.73,1.17c.72,1.36.1,3.61-.23,4.44L84.07,63.82a28,28,0,0,0-7.68-2.33ZM91.34,82.23a8.49,8.49,0,0,0-3.52,4.21,8.19,8.19,0,0,0-3.29-3.67ZM75.21,83.5a8.18,8.18,0,0,0-2.37,3.25,7.75,7.75,0,0,0-2.49-2.87ZM66,95.92a5.71,5.71,0,1,1,5.71-5.71A5.72,5.72,0,0,1,66,95.92Zm5.16,0A7.73,7.73,0,0,0,73,93.25a8.18,8.18,0,0,0,2,2.67Zm9.27,0a6.14,6.14,0,1,1,6.14-6.14A6.15,6.15,0,0,1,80.39,95.92Zm5.33,0a8.17,8.17,0,0,0,2.22-3.11,8.5,8.5,0,0,0,2.31,3.11Zm10,0a6.46,6.46,0,1,1,6.46-6.46A6.47,6.47,0,0,1,95.71,95.92Zm7.61-2.79a9.1,9.1,0,0,0,2.32,2.79h-4.48A8.5,8.5,0,0,0,103.32,93.13Z" transform="translate(-14.48 -8.53)" style="fill:#f7a605"/><polygon points="21.69 65.22 21.84 65.12 21.92 65.22 21.69 65.22" style="fill:#f7a605"/></svg>