<svg xmlns="http://www.w3.org/2000/svg" viewBox="0 0 105 61" class="icon icon-delo"><title>delo</title><rect width="105" height="61" style="fill:#0e70b7"/><path d="M26.53,15.34l1.15.16a7.61,7.61,0,0,1,4.7,2.36,9.24,9.24,0,0,1,1.95,3.84A22.38,22.38,0,0,1,35,25.88a78.25,78.25,0,0,1,.12,7.83,18.07,18.07,0,0,1-.89,5.5,8.48,8.48,0,0,1-3.38,4.57,9.24,9.24,0,0,1-3.91,1.35,17.47,17.47,0,0,1-2.29.1H15.25c-.23,0-.29-.06-.29-.29q0-14.81,0-29.61Zm-5.3,14.92q0,5,0,10.08c0,.2,0,.28.26.28,1,0,1.94,0,2.9,0A3.55,3.55,0,0,0,27.2,39.5a5,5,0,0,0,1-2.08,19.87,19.87,0,0,0,.54-4.76,65.62,65.62,0,0,0-.13-7.53A9.75,9.75,0,0,0,28,22.24,3.44,3.44,0,0,0,24.73,20c-1.07,0-2.14,0-3.21,0-.24,0-.31.06-.31.3Q21.23,25.25,21.23,30.26Z" style="fill:#fff"/><path d="M65.24,15.34c0,.11,0,.22,0,.33q0,14.62,0,29.23c0,.33,0,.33-.34.33H59.69c-.25,0-.32,0-.32-.31q0-14.79,0-29.59Z" style="fill:#fff"/><path d="M90,26.65a5.65,5.65,0,0,1-.3.6,1.72,1.72,0,0,1-3.1-1.31A1.72,1.72,0,0,1,90,25.78s0,.08.06.11Zm-.34-.4a1.37,1.37,0,1,0-2.73,0,1.36,1.36,0,1,0,2.73,0Z" style="fill:#fff"/><path d="M50,35.71H44.65c-.19,0-.26,0-.25.25a15.66,15.66,0,0,0,.36,3.74A4,4,0,0,0,45.35,41a2.18,2.18,0,0,0,3.51,0,4.18,4.18,0,0,0,.64-2.09,2.93,2.93,0,0,0,0-.51c0-.2.06-.26.26-.26h5.5c.14,0,.2,0,.19.18a7.16,7.16,0,0,1-3,5.89,7.93,7.93,0,0,1-3.5,1.28,13.34,13.34,0,0,1-5.2-.25,6.26,6.26,0,0,1-4.69-4.92,20.27,20.27,0,0,1-.52-4.23c0-1.21,0-2.42,0-3.64a13.19,13.19,0,0,1,.91-4.61,6,6,0,0,1,4.14-3.54,12.88,12.88,0,0,1,7.18.09A6.14,6.14,0,0,1,55,28.85a15.45,15.45,0,0,1,.56,3.48c.06,1,0,2,0,3.05,0,.25-.06.34-.33.34C53.51,35.7,51.74,35.71,50,35.71Zm-2.91-3.29h2.42c.12,0,.24,0,.24-.17a12.63,12.63,0,0,0-.18-2.61,2.42,2.42,0,0,0-3-2.07,2.26,2.26,0,0,0-1.8,1.77,9.9,9.9,0,0,0-.31,2.85c0,.2.06.24.25.23Z" style="fill:#fff"/><path d="M86.12,34.57a25.8,25.8,0,0,1-.31,4.74,9.13,9.13,0,0,1-1.14,3.27,6.09,6.09,0,0,1-4,2.75,14.33,14.33,0,0,1-4.83.23,8.5,8.5,0,0,1-3-.83,6,6,0,0,1-3-3.52,14.19,14.19,0,0,1-.71-3.71,38.61,38.61,0,0,1-.09-4.19,17.49,17.49,0,0,1,.59-4.45,6.17,6.17,0,0,1,4.61-4.55,13.13,13.13,0,0,1,6.76,0A6.21,6.21,0,0,1,85.6,29.1a17.73,17.73,0,0,1,.51,4.18C86.12,33.71,86.12,34.14,86.12,34.57Zm-5.85-.27c0-.54,0-1.09,0-1.63a12.67,12.67,0,0,0-.36-3.28,2.13,2.13,0,0,0-1.74-1.72,3.8,3.8,0,0,0-.89,0,2,2,0,0,0-1.8,1.25,4.24,4.24,0,0,0-.26.79,14.71,14.71,0,0,0-.29,3q0,1.79,0,3.59a22.27,22.27,0,0,0,.27,3.19,6.15,6.15,0,0,0,.21.84,2.29,2.29,0,0,0,4.34,0,8,8,0,0,0,.34-1.72A38.27,38.27,0,0,0,80.27,34.31Z" style="fill:#fff"/><path d="M88.73,26.27a.41.41,0,0,1,.29.47A1.09,1.09,0,0,1,89,27c0,.1.15.28-.13.29s-.36,0-.34-.29a1.36,1.36,0,0,0,0-.37c0-.15-.16-.16-.28-.15s-.09.12-.09.19,0,.22,0,.33c0,.28-.12.36-.39.29-.09,0-.09-.09-.09-.16,0-.57,0-1.13,0-1.7,0-.12.06-.16.17-.16h.58c.34,0,.5.11.58.35A.56.56,0,0,1,88.73,26.27Zm-.18-.42c0-.17-.1-.27-.26-.26s-.12.22-.15.34,0,.21.13.2S88.53,26,88.55,25.85Z" style="fill:#fff"/></svg>