<svg xmlns="http://www.w3.org/2000/svg" viewBox="0 0 136 31.69" class="icon icon-havoline"><title>havoline</title><path d="M0,31.34l.77-3L5.85,8.63C6.24,7.1,6.63,5.57,7,4a.32.32,0,0,0-.18-.42C5.69,2.89,4.52,2.14,3.35,1.4l-.27-.18c.07-.08.14,0,.21,0h11.3c.22,0,.27,0,.21.26C13.87,5,13,8.53,12,12.07c-.07.25,0,.3.23.3,1.06,0,2.11,0,3.17,0,.2,0,.28,0,.33-.25C16.69,8.57,17.61,5,18.51,1.48c.06-.23.13-.31.38-.31q3.25,0,6.5,0c.22,0,.29,0,.22.27Q22.76,12.52,19.92,23.6q-1,3.77-1.94,7.54c0,.17-.12.22-.29.22H11.07c-.23,0-.24-.06-.19-.25q1.1-4.23,2.18-8.45.71-2.74,1.42-5.49c0-.17,0-.22-.16-.22-1.11,0-2.22,0-3.33,0-.19,0-.22.09-.25.23l-2.57,10-1,4c0,.13-.07.21-.24.21H.12Z" transform="translate(0 0)" style="fill:#232019"/><path d="M79.14,1.17H90.59c.26,0,.31,0,.24.3Q88,12.58,85.1,23.69c-.64,2.48-1.28,5-1.92,7.44,0,.19-.12.24-.31.24q-3.12,0-6.23,0c-.26,0-.26-.07-.21-.28Q77.75,26,79.06,20.94L82.24,8.61c.38-1.48.76-3,1.15-4.45a.24.24,0,0,0-.13-.32L79.13,1.23Z" transform="translate(0 0)" style="fill:#232019"/><path d="M93.35,1h6.31c.37,0,.74,0,1.11,0,.21,0,.26,0,.21.25-.28,1-.55,2.1-.82,3.14-.06.24-.14.48-.19.73s-.1.2-.26.09L95,2.2,93.33,1.08Z" transform="translate(0 0)" style="fill:#232019"/><path d="M24.9,14.6a8.56,8.56,0,0,1,3.61-6A10.44,10.44,0,0,1,32.62,7a12.68,12.68,0,0,1,5.1.09,6.11,6.11,0,0,1,2.37,1.07,4.18,4.18,0,0,1,1.59,4.06,30.78,30.78,0,0,1-1,4.13c-1.25,4.89-2.51,9.78-3.76,14.67-.07.26-.17.33-.43.33H30.44c-.35,0-.35,0-.26-.34l.6-2.34,0-.16a1,1,0,0,0-.3.33,6.85,6.85,0,0,1-3,2.41,5.94,5.94,0,0,1-4,.15,2.74,2.74,0,0,1-2-2.49,6.86,6.86,0,0,1,.28-2.52c.27-1.07.56-2.13.82-3.2a6.88,6.88,0,0,1,2.93-4.09A23,23,0,0,1,29.68,17a18.55,18.55,0,0,0,3.41-1.73,4,4,0,0,0,1.82-2.69,2.32,2.32,0,0,0,0-.59c-.06-.54-.52-.84-1.15-.79a1.74,1.74,0,0,0-1.55,1.19,14.57,14.57,0,0,0-.53,1.91c-.05.19-.11.27-.33.27H24.9Zm8.35,4.53a15.7,15.7,0,0,0-2.6,1.62,3.26,3.26,0,0,0-1,1.56q-.41,1.45-.76,2.91a.85.85,0,0,0,.67,1.15,1.65,1.65,0,0,0,1.52-.43,3.15,3.15,0,0,0,.71-1.31c.35-1.05.59-2.14.87-3.21C32.85,20.67,33,19.93,33.25,19.13Z" transform="translate(0 0)" style="fill:#232019"/><path d="M133.35,22.81a32.94,32.94,0,0,1-1.13,3.92,7.4,7.4,0,0,1-4.4,4.12,13.47,13.47,0,0,1-7.66.5,5.69,5.69,0,0,1-2.53-1.22,4.14,4.14,0,0,1-1.37-3.94,37.06,37.06,0,0,1,1-4.12c.72-2.86,1.45-5.71,2.21-8.56a8.41,8.41,0,0,1,6.61-6.33,13.06,13.06,0,0,1,6.53,0,4.7,4.7,0,0,1,2.5,1.52,4.46,4.46,0,0,1,.87,3.48,35.83,35.83,0,0,1-1,4.39c-.25,1-.54,2.08-.79,3.12-.05.21-.14.28-.36.28h-8.86c-.41,0-.41,0-.51.38q-.62,2.42-1.24,4.84a3.19,3.19,0,0,0-.09,1,1,1,0,0,0,1.48,1,1.87,1.87,0,0,0,1-1,7.91,7.91,0,0,0,.6-1.78c.13-.49.26-1,.38-1.46,0-.13.08-.18.22-.18h6.47ZM127,16c.39,0,.78,0,1.16,0,.19,0,.26-.06.3-.24.16-.68.36-1.35.52-2a8.39,8.39,0,0,0,.34-1.52.82.82,0,0,0-.78-.94,1.71,1.71,0,0,0-2.06,1.33c-.29,1.06-.55,2.13-.83,3.19,0,.16,0,.21.16.2Z" transform="translate(0 0)" style="fill:#232019"/><path d="M71.63,6.82a9.81,9.81,0,0,1,4.09.72,4.09,4.09,0,0,1,2.57,3.59,9.06,9.06,0,0,1-.4,3.07l-2.84,11a7.68,7.68,0,0,1-4,5.1,12.06,12.06,0,0,1-9.07.89,5,5,0,0,1-2.37-1.44,4.19,4.19,0,0,1-1-3.64c.24-1.54.73-3,1.11-4.54.68-2.68,1.35-5.37,2.07-8a8.54,8.54,0,0,1,6.9-6.43A13.09,13.09,0,0,1,71.63,6.82Zm-6.3,19.36a1,1,0,0,0,1.16,1.08,1.67,1.67,0,0,0,1.3-.72,3.21,3.21,0,0,0,.47-1.08q1.51-5.85,3-11.71a5.16,5.16,0,0,0,.3-1.63.86.86,0,0,0-.7-.85,1.66,1.66,0,0,0-1.47.37,2.35,2.35,0,0,0-.71,1.24q-1.55,6-3.09,12A5.73,5.73,0,0,0,65.33,26.17Z" transform="translate(0 0)" style="fill:#232019"/><path d="M109,7.13l-.75,3,.05,0c.12-.19.23-.37.36-.56a6.12,6.12,0,0,1,5.21-2.73,5.25,5.25,0,0,1,1.5.15,2.81,2.81,0,0,1,2.11,2.57A9.87,9.87,0,0,1,117,13l-3.3,12.8-1.37,5.33c0,.11,0,.23-.23.23h-6.47l-.1,0,.66-2.57,3.73-14.52a3.31,3.31,0,0,0,.14-1.06.84.84,0,0,0-.89-.85,1.69,1.69,0,0,0-1.6.86,5.5,5.5,0,0,0-.58,1.58l-3.45,13.4c-.26,1-.52,2-.77,3,0,.14-.08.19-.23.19H96.09l-.08,0c.13-.52.26-1,.39-1.55l5.47-21.23.33-1.27c0-.1,0-.18.2-.18h6.47Z" transform="translate(0 0)" style="fill:#232019"/><path d="M48.78,25.91a.58.58,0,0,0,.14-.28q3.44-9.11,6.87-18.22a.39.39,0,0,1,.44-.3c1.81,0,3.63,0,5.44,0,.05.09,0,.14,0,.2L51.2,31.11a.35.35,0,0,1-.37.25H43.16c-.24,0-.28-.08-.26-.29q.21-3.07.41-6.15c.1-1.5.19-3,.29-4.51q.18-2.66.36-5.31.15-2.25.29-4.51c.07-1.11.15-2.22.21-3.33,0-.22.15-.16.26-.16h4.88c.5,0,1,0,1.49,0,.2,0,.22.07.2.23q-.29,2-.57,4.07l-.67,4.88-.69,5q-.31,2.22-.61,4.45A.22.22,0,0,0,48.78,25.91Z" transform="translate(0 0)" style="fill:#232019"/><path d="M86.41,31.34l.9-3.49q2.64-10.26,5.28-20.52a.24.24,0,0,1,.29-.22h6.26c.24,0,.26.06.2.27q-1.82,7-3.62,14.07l-2.48,9.65c0,.14,0,.27-.28.27H86.41Z" transform="translate(0 0)" style="fill:#232019"/><path d="M0,30.32l.77-3,5-19.72C6.2,6.08,6.59,4.55,7,3a.32.32,0,0,0-.17-.42C5.65,1.87,4.49,1.12,3.33.38L3.06.2c.07-.08.14,0,.21,0H14.5c.22,0,.26,0,.21.26C13.79,4,12.89,7.5,12,11c-.06.25,0,.3.23.3,1.05,0,2.1,0,3.15,0a.27.27,0,0,0,.32-.25C16.59,7.55,17.51,4,18.41.46c.06-.23.13-.31.38-.31q3.23,0,6.46,0c.22,0,.29,0,.22.27Q22.63,11.5,19.8,22.58q-1,3.77-1.93,7.54c0,.17-.12.22-.29.22H11c-.23,0-.24-.06-.19-.25q1.09-4.23,2.17-8.45.7-2.74,1.41-5.49c0-.17,0-.22-.16-.22-1.1,0-2.21,0-3.31,0-.19,0-.22.09-.25.23l-2.55,10-1,4c0,.13-.07.21-.24.21H.12Z" transform="translate(0 0)" style="fill:#fcc02d"/><path d="M78.69.15H90.08c.25,0,.3,0,.24.3q-2.85,11.11-5.69,22.22c-.63,2.48-1.28,5-1.91,7.44,0,.19-.12.24-.3.24q-3.1,0-6.2,0c-.26,0-.26-.07-.21-.28q1.31-5.07,2.6-10.14L81.77,7.59c.38-1.48.75-3,1.14-4.45a.24.24,0,0,0-.13-.32L78.68.2Z" transform="translate(0 0)" style="fill:#fcc02d"/><path d="M92.83,0H99.1c.37,0,.74,0,1.1,0,.21,0,.26,0,.21.25-.28,1-.55,2.1-.82,3.14-.06.24-.14.48-.19.73s-.1.2-.26.09l-4.63-3L92.81.06Z" transform="translate(0 0)" style="fill:#fcc02d"/><path d="M24.76,13.57a8.57,8.57,0,0,1,3.59-6A10.35,10.35,0,0,1,32.43,6a12.53,12.53,0,0,1,5.07.09,6.06,6.06,0,0,1,2.36,1.07,4.19,4.19,0,0,1,1.58,4.06,30.93,30.93,0,0,1-1,4.13C39.24,20.24,38,25.12,36.73,30c-.07.26-.17.33-.43.33h-6c-.34,0-.34,0-.26-.34l.6-2.34,0-.16a1,1,0,0,0-.3.33,6.82,6.82,0,0,1-3,2.41,5.88,5.88,0,0,1-4,.15,2.74,2.74,0,0,1-1.95-2.49,6.9,6.9,0,0,1,.28-2.52c.27-1.07.55-2.13.82-3.2a6.88,6.88,0,0,1,2.91-4.09A22.87,22.87,0,0,1,29.52,16a18.41,18.41,0,0,0,3.39-1.73,4,4,0,0,0,1.8-2.69,2.33,2.33,0,0,0,0-.59c-.06-.54-.51-.84-1.15-.79A1.73,1.73,0,0,0,32,11.4a14.63,14.63,0,0,0-.53,1.91c0,.19-.11.27-.33.27H24.76Zm8.3,4.53a15.6,15.6,0,0,0-2.58,1.62,3.26,3.26,0,0,0-1,1.56q-.4,1.45-.75,2.91a.85.85,0,0,0,.66,1.15,1.64,1.64,0,0,0,1.51-.43,3.15,3.15,0,0,0,.71-1.31c.35-1.05.58-2.14.86-3.21C32.67,19.65,32.85,18.91,33.06,18.1Z" transform="translate(0 0)" style="fill:#fcc02d"/><path d="M132.59,21.79a33.09,33.09,0,0,1-1.13,3.92,7.37,7.37,0,0,1-4.38,4.12,13.32,13.32,0,0,1-7.62.5A5.65,5.65,0,0,1,117,29.11a4.15,4.15,0,0,1-1.36-3.94,37.24,37.24,0,0,1,1-4.12c.72-2.86,1.44-5.71,2.2-8.56a8.38,8.38,0,0,1,6.57-6.33,12.92,12.92,0,0,1,6.49,0,4.66,4.66,0,0,1,2.49,1.52,4.48,4.48,0,0,1,.86,3.48,36,36,0,0,1-1,4.39c-.25,1-.53,2.08-.79,3.12-.05.21-.13.28-.36.28h-8.81c-.4,0-.41,0-.51.38q-.62,2.42-1.23,4.84a3.21,3.21,0,0,0-.08,1,1,1,0,0,0,1.47,1,1.87,1.87,0,0,0,1-1,7.94,7.94,0,0,0,.6-1.78c.13-.49.26-1,.37-1.46,0-.13.08-.18.22-.18h6.44ZM126.24,15c.39,0,.77,0,1.16,0,.19,0,.26-.06.3-.24.16-.68.36-1.35.52-2a8.43,8.43,0,0,0,.34-1.52.82.82,0,0,0-.78-.94,1.7,1.7,0,0,0-2,1.33c-.29,1.06-.55,2.13-.83,3.19,0,.16,0,.21.16.2Z" transform="translate(0 0)" style="fill:#fcc02d"/><path d="M71.22,5.79a9.71,9.71,0,0,1,4.07.72,4.09,4.09,0,0,1,2.56,3.59,9.11,9.11,0,0,1-.39,3.07l-2.82,11a7.68,7.68,0,0,1-4,5.1,11.93,11.93,0,0,1-9,.89,4.92,4.92,0,0,1-2.36-1.44,4.21,4.21,0,0,1-1-3.64c.24-1.54.72-3,1.1-4.54.67-2.68,1.34-5.37,2.06-8a8.51,8.51,0,0,1,6.86-6.43A12.94,12.94,0,0,1,71.22,5.79ZM65,25.15a1,1,0,0,0,1.15,1.08,1.66,1.66,0,0,0,1.29-.72,3.22,3.22,0,0,0,.46-1.08q1.5-5.85,3-11.71a5.19,5.19,0,0,0,.3-1.63.86.86,0,0,0-.69-.85,1.64,1.64,0,0,0-1.46.37,2.36,2.36,0,0,0-.71,1.24q-1.54,6-3.07,12A5.76,5.76,0,0,0,65,25.15Z" transform="translate(0 0)" style="fill:#fcc02d"/><path d="M108.36,6.11l-.75,3,.05,0c.12-.19.23-.37.36-.56a6.08,6.08,0,0,1,5.18-2.73,5.19,5.19,0,0,1,1.49.15,2.81,2.81,0,0,1,2.1,2.57,9.92,9.92,0,0,1-.44,3.47l-3.28,12.8-1.36,5.33c0,.11,0,.23-.22.23h-6.44l-.1,0,.66-2.57,3.71-14.52a3.33,3.33,0,0,0,.14-1.06.83.83,0,0,0-.88-.85,1.67,1.67,0,0,0-1.59.86,5.52,5.52,0,0,0-.58,1.58L103,27.15c-.26,1-.52,2-.77,3,0,.14-.08.19-.23.19H95.55l-.08,0c.13-.52.26-1,.39-1.55l5.43-21.23.33-1.27c0-.1,0-.18.2-.18h6.44Z" transform="translate(0 0)" style="fill:#fcc02d"/><path d="M48.51,24.88a.58.58,0,0,0,.14-.28q3.42-9.11,6.84-18.22a.38.38,0,0,1,.44-.3c1.8,0,3.61,0,5.41,0,.05.09,0,.14,0,.2L50.91,30.09a.34.34,0,0,1-.37.25H42.92c-.24,0-.27-.08-.26-.29q.21-3.07.41-6.15c.1-1.5.19-3,.29-4.51q.17-2.66.35-5.31.15-2.25.29-4.51c.07-1.11.15-2.22.21-3.33,0-.22.15-.16.26-.16h4.85c.49,0,1,0,1.48,0,.2,0,.22.07.19.23q-.29,2-.57,4.07l-.67,4.88-.68,5q-.3,2.22-.61,4.45A.22.22,0,0,0,48.51,24.88Z" transform="translate(0 0)" style="fill:#fcc02d"/><path d="M85.92,30.32l.9-3.49Q89.44,16.57,92.06,6.3c0-.17.11-.22.29-.22h6.22c.24,0,.25.06.2.27q-1.81,7-3.6,14.07L92.7,30.07c0,.14,0,.27-.28.27h-6.5Z" transform="translate(0 0)" style="fill:#fcc02d"/></svg>