<svg xmlns="http://www.w3.org/2000/svg" viewBox="0 0 158 47" class="icon icon-logo-msm"><title>logo-msm</title><path d="M13.6,0h.18a1.72,1.72,0,0,1,.61.09,16,16,0,0,1,2.19.44c1,.26,2,.61,3.25,1a25,25,0,0,1,3.95,1.75c.7.35,1.4.79,2.19,1.22s1.49,1,2.19,1.49A30,30,0,0,1,32.64,10a29.36,29.36,0,0,1,2.11,2.53,34.54,34.54,0,0,1,1.93,3,23.25,23.25,0,0,1,2.63,7.43c.09.7.18,1.4.26,2.18v2.27l-.09.61-.09,1.14a3.74,3.74,0,0,1-.18,1c-.09.35-.09.7-.18,1a19.63,19.63,0,0,1-1.23,3.84,16.93,16.93,0,0,1-1.93,3.49,19.31,19.31,0,0,1-5.18,5.15,17.09,17.09,0,0,1-10.7,3,13.14,13.14,0,0,1-3.68-.7,19.55,19.55,0,0,1-2.19-1,1.35,1.35,0,0,1-.53-.35.27.27,0,0,0-.18-.09l-.18-.09a.42.42,0,0,1-.09-.61.46.46,0,0,1,.35-.17h.7c.44,0,1.05-.09,1.84-.17a26.19,26.19,0,0,0,2.81-.7,27.15,27.15,0,0,0,3.42-1.49,22.86,22.86,0,0,0,3.51-2.62,19,19,0,0,0,2.9-3.93,15.26,15.26,0,0,0,1.58-4.89c.09-.44.09-.87.18-1.31l.09-.61v-.7a13.28,13.28,0,0,0-.26-2.62,18.63,18.63,0,0,0-1.67-5.15,26,26,0,0,0-2.72-4.54,61.67,61.67,0,0,0-6.05-7.34c-1.93-2-3.6-3.67-4.83-4.8S13.07,1,13.07,1a.42.42,0,0,1,0-.61.67.67,0,0,1,.35-.17Z" style="fill:#010101"/><path d="M27.11,26.21c0,7.86-6.05,14.24-13.6,14.24S0,34.07,0,26.21C0,17.73,10.26,9.61,13.6,4.89,17,9.52,27.11,18.35,27.11,26.21Z" style="fill:#f7a608"/><path d="M52.2,4.11A3.8,3.8,0,0,1,59.3,2.27L67,15.64,74.83,2.27A3.51,3.51,0,0,1,78.17.35,3.61,3.61,0,0,1,82,4.11V27.17a2.94,2.94,0,0,1-5.88,0V11.36L70.1,21.58a3.34,3.34,0,0,1-6,0L58.08,11.36V27.17a2.94,2.94,0,0,1-5.88,0Z" style="fill:#010101"/><path d="M108.35.44a19.25,19.25,0,0,1,6.58,1c1.67.61,2.46,1.57,2.46,2.88a2.71,2.71,0,0,1-2.81,2.8c-1.4,0-3-1.31-6.32-1.31a9.1,9.1,0,0,0-8.95,9.26,9.07,9.07,0,0,0,2.54,6.64,8.69,8.69,0,0,0,6.4,2.62c4.12,0,4.91-1.4,6.76-1.4a2.77,2.77,0,0,1,2.81,2.8c0,1.31-1.05,2.36-2.54,3a19.69,19.69,0,0,1-7,1.22C99.4,30,92.82,24.2,92.82,15.11,92.73,7,100.27.17,108.35.44Z" style="fill:#010101"/><path d="M128.08,4.11a3.8,3.8,0,0,1,7.11-1.83l7.72,13.37,7.81-13.37A3.51,3.51,0,0,1,154.05.35a3.61,3.61,0,0,1,3.86,3.76V27.17a2.94,2.94,0,0,1-5.88,0V11.36L146,21.58a3.34,3.34,0,0,1-6,0L134,11.36V27.17a2.94,2.94,0,0,1-5.88,0V4.11Z" style="fill:#010101"/><path d="M52.11,37.57a1,1,0,0,1,1.14-1h4.91a1,1,0,1,1,0,1.92H54.3V46A1.14,1.14,0,0,1,52,46V37.57Z" style="fill:#010101"/><path d="M75.18,37.57a1.09,1.09,0,0,1,1.14-1h3.42a3.6,3.6,0,0,1,2.46.79,3.56,3.56,0,0,1,1.23,2.88A3.44,3.44,0,0,1,82,43.07a4,4,0,0,1-2.37.7H77.29V46A1.14,1.14,0,0,1,75,46V37.57Zm2.19,4.28h2a2,2,0,0,0,1.14-.26,1.58,1.58,0,0,0,.7-1.4,1.53,1.53,0,0,0-.61-1.4,2.2,2.2,0,0,0-1.14-.26h-2v3.32Z" style="fill:#010101"/><path d="M100,36.34a1.21,1.21,0,0,1,1.14.79l2.19,4.46,1.93-4.46a1.13,1.13,0,0,1,1.14-.79,1,1,0,0,1,1.05,1,2.22,2.22,0,0,1-.18.61l-2.54,5.77c-1,2.1-2.46,3.23-4.39,3.23a1,1,0,0,1-1.14-1,1,1,0,0,1,1.05-1,2.31,2.31,0,0,0,1.93-1l-3.07-5.94a2,2,0,0,1-.18-.7A1,1,0,0,1,100,36.34Z" style="fill:#010101"/><path d="M123.35,37.57a1.09,1.09,0,0,1,1.14-1h6.67a1.09,1.09,0,0,1,1.14,1V46A1.14,1.14,0,0,1,130,46V38.44h-4.47V46a1.14,1.14,0,0,1-2.28,0V37.57Z" style="fill:#010101"/><path d="M149.05,37.57a1.09,1.09,0,0,1,1.14-1h6.67a1.09,1.09,0,0,1,1.14,1V46a1.14,1.14,0,0,1-2.28,0V38.44h-4.47V46A1.14,1.14,0,0,1,149,46V37.57Z" style="fill:#010101"/></svg>