<svg xmlns="http://www.w3.org/2000/svg" viewBox="0 0 162 47" class="icon icon-more-info"><title>moreinfo</title><path d="M59.49,19.95q-.07.92-.19,1.7c-.08.52-.16,1-.25,1.47s-.21.88-.32,1.28-.24.77-.38,1.14h3.52v-5.6h-2.4Z" style="fill:#f7a605"/><path d="M95.83,23.61H93.3v1.91h2.54a1.16,1.16,0,0,0,.88-.32,1,1,0,0,0,.28-.66.9.9,0,0,0-.28-.65A1.23,1.23,0,0,0,95.83,23.61Z" style="fill:#f7a605"/><path d="M85.23,20.61a2.82,2.82,0,0,0-.9-.63,2.69,2.69,0,0,0-2.21,0,2.81,2.81,0,0,0-.9.63,3.27,3.27,0,0,0-.62.95,2.84,2.84,0,0,0,0,2.27,3.27,3.27,0,0,0,.62.95,2.83,2.83,0,0,0,.9.63,2.7,2.7,0,0,0,2.21,0,2.83,2.83,0,0,0,.9-.63,3.29,3.29,0,0,0,.62-.95,2.85,2.85,0,0,0,0-2.27A3.29,3.29,0,0,0,85.23,20.61Z" style="fill:#f7a605"/><path d="M72.52,19.95H70.13l0,2.86H72.5a1.26,1.26,0,0,0,.62-.14,1.33,1.33,0,0,0,.43-.35,1.34,1.34,0,0,0,.24-.47,2,2,0,0,0,.08-.52,1.5,1.5,0,0,0-.33-.95A1.19,1.19,0,0,0,72.52,19.95Z" style="fill:#f7a605"/><path d="M0,0V47H162V0ZM40.88,28H38.12V19.9H33.59V28H30.83V17.38H40.88Zm12.51-3.16a5.91,5.91,0,0,1-1.21,1.75,5.41,5.41,0,0,1-1.8,1.18,5.82,5.82,0,0,1-2.23.43l0,0a5.81,5.81,0,0,1-2.22-.43,5.41,5.41,0,0,1-1.8-1.18,5.91,5.91,0,0,1-1.21-1.75,5.38,5.38,0,0,1,0-4.31,5.78,5.78,0,0,1,1.21-1.77,5.41,5.41,0,0,1,1.8-1.18,6,6,0,0,1,4.45,0,5.41,5.41,0,0,1,1.8,1.18,5.78,5.78,0,0,1,1.21,1.77,5.24,5.24,0,0,1,.46,2.15A5.12,5.12,0,0,1,53.39,24.87Zm12.3,4.89H63.24L63.12,28l-6.09,0L56.9,29.8H54.45V25.53h1.17a10.44,10.44,0,0,0,.63-1.83,15.28,15.28,0,0,0,.36-2c.08-.68.13-1.37.14-2.1s0-1.48,0-2.27h7.84V25.5h1.06Zm10.76-7.05A4.18,4.18,0,0,1,75.75,24a3.56,3.56,0,0,1-1.12.93,3.15,3.15,0,0,1-1.51.36h-3V28H67.37V17.43h5.74a3.34,3.34,0,0,1,1.51.33,3.43,3.43,0,0,1,1.12.88,3.94,3.94,0,0,1,.69,1.23,4.33,4.33,0,0,1,.24,1.42A4.47,4.47,0,0,1,76.44,22.71Zm12,2.16a5.91,5.91,0,0,1-1.21,1.75,5.41,5.41,0,0,1-1.8,1.18,5.81,5.81,0,0,1-2.22.43l0,0A5.81,5.81,0,0,1,81,27.82a5.41,5.41,0,0,1-1.8-1.18A5.91,5.91,0,0,1,78,24.89a5.38,5.38,0,0,1,0-4.31,5.78,5.78,0,0,1,1.21-1.77A5.41,5.41,0,0,1,81,17.63a6,6,0,0,1,4.45,0,5.41,5.41,0,0,1,1.8,1.18,5.78,5.78,0,0,1,1.21,1.77,5.24,5.24,0,0,1,.46,2.15A5.13,5.13,0,0,1,88.49,24.87Zm11.15.92A3.33,3.33,0,0,1,98,27.73a2.91,2.91,0,0,1-1.36.3H90.54V17.38h7.83v2.54H93.3v1.17h3.34a2.93,2.93,0,0,1,1.37.3,3.25,3.25,0,0,1,1,.77,3.38,3.38,0,0,1,.62,1.09,3.87,3.87,0,0,1,.22,1.26A4,4,0,0,1,99.64,25.79ZM111.43,28h-2.76v-4.1h-4.53V28h-2.76V17.38h2.76v4h4.53v-4h2.76Zm10,0H113.6V17.38h7.83V19.9h-5.06v1.56h4.75V24h-4.75V25.5h5.11Zm9.7,0H123.3V17.38h7.83V19.9h-5.06v1.56h4.75V24h-4.75V25.5h5.11Z" style="fill:#f7a605"/><path d="M50.12,20.61a2.81,2.81,0,0,0-.9-.63A2.69,2.69,0,0,0,47,20a2.81,2.81,0,0,0-.9.63,3.27,3.27,0,0,0-.62.95,2.84,2.84,0,0,0,0,2.27,3.27,3.27,0,0,0,.62.95,2.82,2.82,0,0,0,.9.63,2.7,2.7,0,0,0,2.21,0,2.82,2.82,0,0,0,.9-.63,3.27,3.27,0,0,0,.62-.95,2.85,2.85,0,0,0,0-2.27A3.27,3.27,0,0,0,50.12,20.61Z" style="fill:#f7a605"/></svg>