<svg xmlns="http://www.w3.org/2000/svg" viewBox="0 0 122.98 36.58" class="icon icon-logo-footer"><title>msm-logo-footer</title><path d="M10.58,0h.14a1.34,1.34,0,0,1,.48.07,12.43,12.43,0,0,1,1.71.34c.75.2,1.57.48,2.53.82a19.44,19.44,0,0,1,3.07,1.36c.55.27,1.09.61,1.71,1s1.16.75,1.71,1.16A23.39,23.39,0,0,1,25.4,7.75a22.85,22.85,0,0,1,1.64,2A26.89,26.89,0,0,1,28.54,12a18.09,18.09,0,0,1,2,5.78c.07.54.14,1.09.2,1.7v1.77l-.07.48-.07.88a2.91,2.91,0,0,1-.14.82c-.07.27-.07.54-.14.75a15.28,15.28,0,0,1-1,3,13.18,13.18,0,0,1-1.5,2.72,15,15,0,0,1-4,4,13.3,13.3,0,0,1-8.33,2.31,10.23,10.23,0,0,1-2.87-.54A15.22,15.22,0,0,1,11,35a1.05,1.05,0,0,1-.41-.27.21.21,0,0,0-.14-.07l-.14-.07a.33.33,0,0,1-.07-.48.36.36,0,0,1,.27-.14h.55c.34,0,.82-.07,1.43-.14a20.39,20.39,0,0,0,2.19-.54,21.13,21.13,0,0,0,2.66-1.16,17.8,17.8,0,0,0,2.73-2A14.81,14.81,0,0,0,22.33,27a11.88,11.88,0,0,0,1.23-3.81c.07-.34.07-.68.14-1l.07-.48v-.54a10.34,10.34,0,0,0-.2-2,14.5,14.5,0,0,0-1.3-4,20.23,20.23,0,0,0-2.12-3.54,48,48,0,0,0-4.71-5.71c-1.5-1.56-2.8-2.86-3.76-3.74S10.17.75,10.17.75a.33.33,0,0,1,0-.48.52.52,0,0,1,.27-.14Z" style="fill:#010101"/><path d="M21.1,20.4A10.83,10.83,0,0,1,10.52,31.48C4.64,31.48,0,26.52,0,20.4,0,13.8,8,7.48,10.58,3.81,13.25,7.41,21.1,14.28,21.1,20.4Z" style="fill:#f7a608"/><path d="M40.63,3.2a3,3,0,0,1,5.53-1.43l6,10.4,6.08-10.4A2.73,2.73,0,0,1,60.84.27a2.81,2.81,0,0,1,3,2.92v18a2.29,2.29,0,0,1-4.58,0V8.84l-4.71,8a2.6,2.6,0,0,1-4.64,0l-4.71-8V21.15a2.29,2.29,0,0,1-4.58,0Z" style="fill:#010101"/><path d="M84.33.34a15,15,0,0,1,5.12.82c1.3.48,1.91,1.22,1.91,2.24a2.11,2.11,0,0,1-2.19,2.18c-1.09,0-2.32-1-4.92-1a7.08,7.08,0,0,0-7,7.21,7.06,7.06,0,0,0,2,5.17,6.76,6.76,0,0,0,5,2c3.21,0,3.82-1.09,5.26-1.09a2.15,2.15,0,0,1,2.19,2.18,2.72,2.72,0,0,1-2,2.31,15.33,15.33,0,0,1-5.46,1c-6.9,0-12-4.49-12-11.56C72.18,5.44,78.05.14,84.33.34Z" style="fill:#010101"/><path d="M99.7,3.2a3,3,0,0,1,5.53-1.43l6,10.4,6.08-10.4a2.73,2.73,0,0,1,2.59-1.5,2.81,2.81,0,0,1,3,2.92v18a2.29,2.29,0,0,1-4.58,0V8.84l-4.71,8a2.6,2.6,0,0,1-4.64,0l-4.71-8V21.15a2.29,2.29,0,0,1-4.58,0V3.2Z" style="fill:#010101"/><path d="M40.56,29.24a.81.81,0,0,1,.89-.82h3.82a.75.75,0,1,1,0,1.5h-3v5.85a.89.89,0,0,1-1.78,0V29.24Z" style="fill:#010101"/><path d="M58.52,29.24a.85.85,0,0,1,.89-.82h2.66A2.8,2.8,0,0,1,64,29a2.77,2.77,0,0,1,1,2.24,2.68,2.68,0,0,1-1.09,2.24,3.12,3.12,0,0,1-1.84.54H60.16v1.7a.89.89,0,0,1-1.78,0V29.24Zm1.71,3.33H61.8a1.55,1.55,0,0,0,.89-.2,1.23,1.23,0,0,0,.55-1.09,1.19,1.19,0,0,0-.48-1.09,1.71,1.71,0,0,0-.89-.2H60.3v2.58Z" style="fill:#010101"/><path d="M77.85,28.29a.94.94,0,0,1,.89.61l1.71,3.47,1.5-3.47a.88.88,0,0,1,.89-.61.79.79,0,0,1,.82.82,1.72,1.72,0,0,1-.14.48l-2,4.49a3.73,3.73,0,0,1-3.41,2.52.8.8,0,0,1-.89-.75.77.77,0,0,1,.82-.75,1.8,1.8,0,0,0,1.5-.82l-2.39-4.62A1.59,1.59,0,0,1,77,29.1.75.75,0,0,1,77.85,28.29Z" style="fill:#010101"/><path d="M96,29.24a.85.85,0,0,1,.89-.82h5.19a.85.85,0,0,1,.89.82v6.53a.89.89,0,0,1-1.78,0V29.92H97.72v5.85a.89.89,0,0,1-1.78,0V29.24Z" style="fill:#010101"/><path d="M116,29.24a.85.85,0,0,1,.89-.82h5.19a.85.85,0,0,1,.89.82v6.53a.89.89,0,0,1-1.78,0V29.92h-3.48v5.85a.89.89,0,0,1-1.78,0V29.24Z" style="fill:#010101"/></svg>