<svg xmlns="http://www.w3.org/2000/svg" viewBox="0 0 50 50" class="icon icon-wherebuy"><title>wherebuy</title><circle cx="25.01" cy="23.45" r="1.4" transform="translate(1.46 48.38) rotate(-89.8)" style="fill:#f7a605"/><path d="M24,17.38a5.81,5.81,0,0,0-4.75,4,5.88,5.88,0,0,0,1.31,6.22c.53.59,1.12,1.13,1.68,1.7L25,32.06l.1-.07c1.46-1.46,2.95-2.9,4.37-4.39a5.86,5.86,0,0,0,1.6-5.07A6.08,6.08,0,0,0,24,17.38Zm1,9.15a3.08,3.08,0,1,1,3.09-3.12A3.08,3.08,0,0,1,25,26.53Z" transform="translate(-0.01)" style="fill:#f7a605"/><path d="M25,0A25,25,0,1,0,50,25,25,25,0,0,0,25,0Zm5.6,28.86c-1.79,1.85-3.63,3.65-5.46,5.47l-.13.11-3-3c-.83-.83-1.67-1.65-2.49-2.49a7.51,7.51,0,0,1-2-7.79,7.44,7.44,0,0,1,6-5.42A7.81,7.81,0,0,1,32.71,22,7.58,7.58,0,0,1,30.61,28.86Z" transform="translate(-0.01)" style="fill:#f7a605"/></svg>